<?xml version="1.0" standalone="no"?>
<!DOCTYPE svg PUBLIC "-//W3C//DTD SVG 20010904//EN"
 "http://www.w3.org/TR/2001/REC-SVG-20010904/DTD/svg10.dtd">
<svg version="1.0" xmlns="http://www.w3.org/2000/svg"
 width="500.000000pt" height="500.000000pt" viewBox="0 0 500.000000 500.000000"
 preserveAspectRatio="xMidYMid meet">
<metadata>
Created by potrace 1.14, written by Peter Selinger 2001-2017
</metadata>
<g transform="translate(0.000000,500.000000) scale(0.100000,-0.100000)"
fill="#000000" stroke="none">
<path d="M2073 4253 c-62 -21 -88 -62 -88 -140 l0 -61 -65 -27 c-36 -14 -72
-29 -80 -32 -12 -5 -13 -4 -4 8 27 34 60 189 41 189 -20 0 -75 -44 -92 -73
-18 -29 -24 -105 -12 -142 6 -16 -1 -24 -36 -43 -23 -12 -66 -41 -96 -63 -36
-27 -51 -35 -46 -22 19 46 8 183 -15 183 -11 0 -100 -127 -116 -166 -10 -24
-15 -59 -12 -97 2 -34 -1 -62 -7 -64 -6 -1 -10 14 -10 35 0 20 -3 49 -6 63 -5
20 0 38 22 70 85 129 75 279 -25 351 -33 23 -48 29 -76 24 -145 -21 -198 -45
-226 -106 -10 -19 -23 -41 -31 -48 -23 -23 -26 -59 -8 -94 10 -18 26 -49 35
-68 52 -102 155 -148 259 -115 12 3 21 5 21 3 10 -86 11 -118 2 -118 -5 0 -31
9 -57 21 -125 55 -296 -9 -364 -137 -36 -67 -28 -87 27 -69 20 7 71 16 112 20
41 4 110 20 153 36 l79 28 -36 -44 c-20 -24 -56 -75 -79 -113 -39 -63 -44 -68
-69 -61 -14 4 -59 10 -100 15 -40 4 -76 9 -80 10 -5 1 -21 2 -37 3 -26 1 -31
7 -47 54 -51 156 -143 212 -205 125 -37 -51 -62 -256 -38 -313 7 -16 14 -41
16 -55 7 -40 32 -60 75 -60 77 0 129 48 151 141 l12 51 80 -5 c75 -6 133 -14
162 -23 10 -2 9 -11 -3 -36 -15 -33 -16 -33 -87 -33 -49 0 -84 -6 -109 -18
-57 -29 -119 -96 -149 -163 -32 -70 -48 -154 -29 -154 7 0 49 19 93 42 59 30
101 62 151 112 38 39 66 62 61 51 -8 -22 -54 -197 -54 -205 1 -3 -18 -14 -40
-26 -55 -27 -96 -67 -142 -138 -54 -81 -52 -86 19 -71 32 6 65 16 74 21 34 20
88 74 88 89 0 23 19 18 32 -10 18 -41 121 -97 136 -75 12 18 -45 124 -94 174
-34 36 -44 54 -41 70 3 11 10 37 15 56 l9 35 23 -48 c17 -32 29 -46 39 -42 7
3 23 -2 35 -12 16 -14 16 -12 -3 9 -13 15 -26 26 -30 25 -3 -1 -7 2 -8 6 -1 4
-9 20 -19 35 -16 24 -16 25 -1 13 9 -7 17 -10 17 -6 0 4 7 2 15 -5 8 -7 15 -9
15 -5 0 4 6 2 14 -5 8 -6 12 -19 9 -27 -5 -12 -2 -15 10 -10 15 6 42 -15 32
-25 -3 -2 1 -5 8 -5 8 0 14 6 14 13 0 7 -4 11 -9 8 -4 -3 -11 2 -14 11 -4 9
-13 14 -21 11 -11 -5 -11 -2 -2 15 6 12 7 19 1 15 -5 -3 -16 2 -23 12 -13 15
-12 16 4 3 9 -7 17 -10 17 -6 0 4 7 2 15 -5 8 -7 15 -9 15 -5 0 13 50 -33 95
-88 25 -31 45 -58 45 -61 0 -11 -57 -6 -105 9 -27 8 -51 12 -53 10 -6 -6 99
-35 127 -35 14 0 36 3 48 6 20 6 18 11 -38 79 -63 78 -132 135 -195 161 -22 9
-41 18 -43 20 -6 5 42 114 51 114 4 0 8 -4 8 -8 0 -15 33 -47 71 -70 40 -24
59 -28 59 -11 0 6 -6 9 -14 6 -7 -3 -30 6 -51 20 l-37 25 22 23 c22 23 22 23
2 34 -12 6 -28 11 -36 11 -14 0 -14 4 1 35 9 19 24 35 32 36 9 0 24 2 33 4 10
2 17 0 17 -3 -7 -51 27 -109 80 -137 26 -13 27 -12 28 13 0 15 -1 19 -4 10 -6
-23 -12 -23 -48 6 -25 20 -28 26 -16 40 7 9 11 23 7 31 -8 21 0 19 25 -7 23
-24 16 -5 -9 25 -8 9 -13 19 -11 21 2 2 29 6 61 9 l56 5 0 -52 c-1 -53 36
-147 82 -206 l19 -25 16 38 c28 67 16 181 -17 161 -7 -5 -8 -2 -3 5 4 8 -5 28
-23 50 l-30 37 57 12 c33 7 57 8 59 3 10 -30 65 -90 94 -104 89 -42 198 41
198 153 0 93 -84 163 -175 146 -43 -8 -101 -64 -110 -106 -8 -36 -22 -43 -129
-63 l-75 -14 33 39 c34 39 53 91 60 161 2 20 -1 37 -6 37 -19 0 -94 -61 -112
-90 -18 -32 -25 -54 -33 -108 -3 -19 -11 -36 -17 -38 -23 -9 -86 -10 -86 -2 0
14 74 120 131 188 58 69 163 173 230 224 l45 36 42 -21 c45 -23 114 -26 171
-10 42 13 103 59 98 74 -4 13 -50 24 -135 34 l-53 6 63 32 c35 18 65 30 68 27
3 -4 16 -16 29 -27 l24 -20 -12 23 c-12 22 -11 23 9 12 13 -7 20 -8 16 -2 -10
16 25 24 43 10 45 -36 49 -44 24 -51 -11 -3 -7 -5 10 -6 15 0 27 3 27 7 0 14
-65 72 -80 72 -8 0 -21 4 -29 9 -9 6 -1 13 30 23 42 14 45 14 77 -10 37 -28
120 -35 161 -13 l24 13 -24 19 c-13 10 -28 19 -34 19 -5 0 1 -8 14 -17 23 -16
23 -17 5 -24 -32 -13 -96 -11 -88 3 4 6 3 8 -2 5 -6 -3 -16 -2 -24 3 -25 16 8
42 48 38 28 -3 31 -2 18 7 -13 10 -7 14 37 23 95 21 229 42 271 43 31 0 36 2
21 8 -11 5 -40 7 -65 5 l-45 -4 34 27 c67 54 94 85 82 92 -27 17 -130 12 -169
-8 -42 -21 -102 -89 -102 -114 0 -10 -16 -19 -47 -26 -27 -5 -70 -17 -96 -25
-26 -8 -47 -11 -45 -8 2 4 22 46 46 94 23 48 42 89 42 91 0 7 -26 3 -67 -10z
m396 1 l24 -5 -23 -24 c-32 -34 -93 -75 -120 -80 -12 -2 -20 -2 -17 2 9 8 -12
45 -23 38 -4 -3 -6 4 -3 15 10 39 95 67 162 54z m-349 -9 c0 -10 -60 -125 -66
-125 -3 0 -2 6 1 13 4 6 0 4 -8 -6 -9 -10 -18 -14 -21 -8 -3 5 -1 11 5 13 7 2
4 10 -7 18 -10 8 -15 10 -11 3 4 -6 3 -14 -1 -17 -13 -8 -8 35 7 62 16 29 101
68 101 47z m-782 -35 c-14 -22 -17 -23 -37 -11 -11 7 -10 11 5 20 32 18 46 14
32 -9z m95 -17 c37 -39 57 -94 56 -150 l-2 -48 -7 40 c-6 31 -7 34 -9 13 0
-16 -5 -28 -11 -28 -5 0 -9 -3 -9 -7 1 -5 1 -19 0 -33 -2 -21 -5 -17 -20 20
-20 49 -69 90 -107 90 -30 0 -30 -1 3 61 22 43 46 65 74 68 3 1 17 -11 32 -26z
m-193 -8 c-13 -14 -29 -25 -36 -25 -7 0 -27 -12 -45 -27 l-33 -28 19 34 c19
33 75 71 104 71 10 0 7 -7 -9 -25z m65 -15 c3 -5 -2 -21 -11 -35 -9 -14 -12
-26 -8 -26 5 -1 -9 -5 -31 -9 -22 -4 -52 -10 -67 -14 -24 -7 -26 -6 -21 14 3
12 20 28 38 36 17 7 37 20 45 28 14 18 46 21 55 6z m560 -47 c-4 -27 -14 -59
-23 -73 -9 -14 -15 -28 -14 -32 4 -15 -16 -8 -22 8 -3 8 -10 13 -14 10 -5 -3
-8 13 -7 36 2 34 9 48 36 70 18 15 37 28 42 28 4 0 5 -21 2 -47z m-715 -39 c0
-3 -11 -20 -25 -36 -14 -16 -22 -35 -19 -40 4 -7 2 -8 -4 -4 -17 10 -15 52 4
70 15 16 44 22 44 10z m120 -9 c0 -4 -6 -18 -14 -33 -7 -15 -12 -43 -10 -62 1
-19 0 -43 -2 -53 -6 -18 -6 -18 -27 0 -12 10 -7 -1 11 -24 28 -36 30 -42 15
-45 -15 -3 -14 -5 5 -10 12 -3 20 -2 16 3 -3 5 0 9 7 9 7 0 3 10 -10 24 -14
15 -19 26 -12 31 6 3 11 1 11 -4 0 -6 9 -20 20 -31 11 -11 16 -20 10 -20 -12
0 -9 -22 5 -33 6 -5 -6 -5 -25 -2 -49 9 -101 53 -128 108 -34 67 -25 99 36
126 45 19 92 27 92 16z m85 -19 c36 -15 65 -59 65 -98 0 -19 -2 -20 -10 -8 -9
13 -10 13 -10 0 0 -13 -2 -13 -11 0 -9 12 -10 12 -5 -3 3 -10 6 -24 6 -30 0
-7 4 -6 10 3 5 8 10 11 10 5 0 -5 -4 -16 -8 -23 -6 -9 -14 0 -27 28 -10 23
-23 43 -27 47 -5 3 0 -13 11 -36 28 -54 26 -62 -6 -26 l-26 30 22 -38 c25 -45
27 -58 5 -31 -15 18 -15 18 -10 0 6 -16 4 -17 -9 -6 -16 14 -21 35 -5 25 6 -3
7 1 4 10 -6 14 -8 14 -19 -2 -11 -15 -14 -14 -28 13 -14 28 -21 60 -18 95 1
14 36 59 47 59 2 0 20 -6 39 -14z m233 -142 c-5 -74 -18 -96 -45 -72 -10 8
-24 13 -32 10 -9 -3 -11 0 -6 8 5 9 4 11 -3 6 -18 -11 -14 -19 16 -40 15 -11
21 -13 15 -6 -21 22 -15 35 6 16 16 -14 17 -21 8 -31 -10 -10 -15 -9 -27 4 -8
10 -23 20 -33 24 -16 6 -16 10 -3 41 8 19 31 56 53 83 46 60 57 51 51 -43z
m307 -30 c22 -4 44 -7 48 -6 5 2 7 -3 5 -10 -5 -18 -87 -58 -134 -65 -33 -5
-37 -4 -27 8 10 12 8 15 -7 15 -10 0 -16 -4 -13 -9 3 -5 -4 -3 -14 4 -11 6
-20 18 -20 25 0 10 4 11 13 3 8 -7 14 -7 19 1 3 5 16 11 28 11 14 1 9 4 -13 9
-19 4 -27 8 -17 9 9 0 17 5 17 9 0 10 59 8 115 -4z m-688 -177 c11 4 14 2 9
-5 -4 -7 -1 -12 9 -12 10 0 13 -5 9 -12 -6 -10 -4 -10 7 -2 8 6 29 7 49 3 l35
-6 -37 -2 c-31 -1 -38 -5 -38 -21 0 -11 -4 -20 -10 -20 -5 0 -9 5 -7 11 1 6
-5 14 -13 16 -13 4 -13 3 0 -6 13 -9 12 -11 -5 -12 -14 -1 -10 -4 13 -11 17
-6 32 -15 32 -19 0 -5 -12 -4 -27 1 l-28 10 25 -21 c14 -11 19 -18 13 -14 -7
3 -13 2 -13 -3 0 -11 -43 -21 -125 -28 -33 -3 -75 -9 -92 -14 -18 -5 -33 -5
-33 -1 0 18 60 100 88 119 40 29 116 61 120 51 2 -4 10 -5 19 -2z m84 -85 c-7
-2 -18 1 -23 6 -8 8 -4 9 13 5 13 -4 18 -8 10 -11z m-496 -26 c18 -8 39 -24
45 -36 8 -15 8 -20 1 -16 -18 11 -13 -25 7 -48 16 -19 16 -20 0 -7 -28 21 -65
5 -87 -37 -17 -33 -20 -35 -27 -17 -4 11 -13 35 -20 54 -20 48 -17 69 11 96
28 29 26 29 70 11z m695 -25 c0 -15 -5 -43 -11 -62 -17 -50 -69 -102 -69 -68
0 5 5 7 12 3 7 -4 8 -3 4 5 -4 6 -15 10 -23 9 -20 -4 -26 28 -11 56 12 22 78
85 91 86 4 0 7 -13 7 -29z m328 -59 c80 -58 56 -188 -41 -221 l-32 -11 23 18
23 18 -38 -3 c-32 -3 -34 -2 -15 7 31 13 28 16 -15 14 -32 -1 -33 0 -8 4 l30
5 -40 13 -40 12 40 2 c22 0 54 7 70 14 29 13 29 13 -18 10 -32 -3 -46 -1 -42
6 3 6 9 9 13 6 4 -2 16 0 27 5 15 6 9 8 -25 9 l-45 2 33 9 c39 12 43 28 5 22
l-28 -4 28 16 c30 18 38 31 8 15 -28 -15 -50 -13 -30 3 9 7 14 18 11 26 -11
34 59 36 106 3z m-1127 -35 c-8 -8 -11 -3 -11 19 1 25 2 27 11 11 8 -14 8 -22
0 -30z m149 -7 c13 -9 13 -11 0 -20 -13 -8 -12 -10 3 -10 9 0 17 -5 17 -11 0
-5 5 -7 12 -3 7 4 8 3 4 -4 -4 -7 -15 -12 -24 -12 -14 -1 -14 -2 3 -12 19 -12
19 -12 -5 -20 -22 -7 -21 -7 7 -5 18 2 30 0 27 -5 -3 -4 -15 -9 -27 -9 -17 -1
-18 -2 -5 -6 16 -4 16 -6 -1 -25 -24 -25 -51 -18 -74 21 -23 39 -21 73 4 105
22 28 35 31 59 16z m-120 -114 c-5 -22 -9 -42 -9 -43 -1 -2 -1 -11 -1 -20 0
-15 -2 -16 -10 -3 -5 8 -9 39 -8 67 0 32 -5 60 -13 70 -8 9 -9 14 -2 10 7 -5
14 2 19 15 6 21 8 20 20 -16 10 -27 11 -50 4 -80z m-42 -19 c-1 -47 -4 -63 -9
-47 -11 38 -10 132 1 125 5 -3 8 -38 8 -78z m106 -21 c37 -41 42 -42 70 -18
20 16 20 16 7 0 -12 -16 -9 -22 12 -19 13 2 7 -23 -11 -44 -25 -30 -64 -55
-84 -55 -10 0 -27 9 -39 21 -18 18 -20 28 -14 87 3 37 9 76 13 87 6 19 6 19
10 -2 2 -12 18 -38 36 -57z m530 -47 c-9 -15 -24 10 -17 29 5 12 7 12 15 -2 5
-9 6 -21 2 -27z m186 17 c0 -2 -8 -10 -17 -17 -16 -13 -17 -12 -4 4 13 16 21
21 21 13z m30 -31 c0 -5 -4 -4 -8 3 -6 9 -12 5 -20 -15 -11 -26 -11 -27 3 -9
8 11 15 16 15 12 0 -4 8 -3 18 3 25 14 41 -39 30 -98 -9 -52 -16 -61 -29 -41
-64 104 -68 119 -41 155 16 22 32 17 32 -10z m-820 -16 c0 -11 5 -29 10 -40 7
-12 7 -19 1 -19 -6 0 -15 9 -21 19 -13 25 -13 74 0 66 6 -3 10 -15 10 -26z
m520 -13 c0 -11 -19 -15 -25 -6 -3 5 1 10 9 10 9 0 16 -2 16 -4z m-257 -25
c-12 -10 -19 -22 -15 -26 4 -5 1 -5 -5 -1 -19 10 -16 20 10 32 32 17 35 16 10
-5z m51 -3 c-3 -4 1 -8 8 -8 8 0 6 -5 -5 -11 -9 -6 -15 -15 -11 -20 4 -6 12
-5 22 3 10 7 6 -1 -8 -17 -14 -17 -29 -33 -34 -37 -13 -9 -17 -40 -5 -32 5 3
7 10 4 15 -4 5 2 9 12 9 30 0 -44 -65 -126 -110 -41 -22 -77 -40 -81 -40 -12
0 5 62 33 121 32 66 77 123 77 97 0 -12 6 -17 18 -15 22 4 83 42 77 49 -3 2 2
5 10 5 8 0 12 -4 9 -9z m-85 -21 c8 -10 7 -14 -4 -14 -8 0 -15 6 -15 14 0 7 2
13 4 13 2 0 9 -6 15 -13z m157 -332 c4 -8 10 -15 16 -15 5 0 6 6 2 13 -4 6 2
4 13 -6 23 -20 67 -117 53 -117 -32 0 -88 38 -107 75 -9 15 -8 22 5 32 15 11
15 14 2 23 -11 7 -11 10 -2 10 7 0 15 -7 18 -15z m-136 -10 c14 8 38 -34 33
-56 -8 -29 -62 -66 -113 -78 -24 -5 -46 -8 -48 -6 -6 5 48 85 81 121 18 18 34
29 35 23 2 -5 8 -7 12 -4z"/>
<path d="M2344 4205 c-4 -8 -11 -12 -17 -8 -6 3 -2 -5 9 -19 10 -14 21 -24 23
-22 2 2 -2 11 -10 20 -11 14 -10 15 6 12 23 -4 31 17 10 26 -9 3 -18 -1 -21
-9z"/>
<path d="M1437 4039 c7 -7 15 -10 18 -7 3 3 -2 9 -12 12 -14 6 -15 5 -6 -5z"/>
<path d="M1810 4085 c0 -5 5 -17 10 -25 5 -8 10 -10 10 -5 0 6 -5 17 -10 25
-5 8 -10 11 -10 5z"/>
<path d="M1800 4051 c0 -6 4 -13 10 -16 6 -3 7 1 4 9 -7 18 -14 21 -14 7z"/>
<path d="M1535 3889 c-4 -6 -5 -12 -2 -15 2 -3 7 2 10 11 7 17 1 20 -8 4z"/>
<path d="M1180 3680 c8 -5 22 -9 30 -9 10 0 8 3 -5 9 -27 12 -43 12 -25 0z"/>
<path d="M1120 3620 c-11 -8 -7 -9 15 -4 37 8 45 14 19 14 -10 0 -26 -5 -34
-10z"/>
<path d="M815 3560 c3 -5 8 -10 11 -10 2 0 4 5 4 10 0 6 -5 10 -11 10 -5 0 -7
-4 -4 -10z"/>
<path d="M802 3536 c7 -8 15 -12 17 -11 5 6 -10 25 -20 25 -5 0 -4 -6 3 -14z"/>
<path d="M1420 3501 c-8 -6 -17 -8 -20 -6 -3 2 -6 -5 -6 -15 0 -11 6 -16 14
-13 7 3 10 8 8 11 -3 3 2 11 12 18 19 15 14 18 -8 5z"/>
<path d="M1430 3470 c0 -5 5 -10 11 -10 5 0 7 5 4 10 -3 6 -8 10 -11 10 -2 0
-4 -4 -4 -10z"/>
<path d="M824 3264 c-18 -14 -18 -15 4 -4 12 6 22 13 22 15 0 8 -5 6 -26 -11z"/>
<path d="M1515 3220 c-3 -6 1 -7 9 -4 18 7 21 14 7 14 -6 0 -13 -4 -16 -10z"/>
<path d="M986 3169 c-15 -12 -25 -24 -22 -27 4 -3 -1 -14 -11 -24 -9 -10 -13
-18 -8 -18 4 0 1 -8 -6 -17 -13 -17 -13 -17 6 -3 27 20 35 32 28 44 -4 5 1 7
10 3 19 -7 44 18 27 28 -8 5 -8 11 1 21 17 20 6 17 -25 -7z m17 -32 c-5 -8 -8
-7 -11 1 -2 7 -9 9 -14 6 -7 -4 -8 -2 -4 4 4 6 13 9 21 6 8 -4 12 -11 8 -17z"/>
<path d="M929 3123 c-13 -16 -12 -17 4 -4 9 7 17 15 17 17 0 8 -8 3 -21 -13z"/>
<path d="M894 3068 l-29 -33 33 29 c30 28 37 36 29 36 -2 0 -16 -15 -33 -32z"/>
<path d="M1085 2810 c-3 -6 1 -7 9 -4 18 7 21 14 7 14 -6 0 -13 -4 -16 -10z"/>
<path d="M935 2820 c-3 -5 -1 -11 5 -15 6 -4 8 -11 4 -16 -3 -5 -11 -6 -17 -2
-7 4 -6 0 1 -10 13 -15 16 -15 37 1 15 11 20 22 15 31 -9 17 -37 23 -45 11z
m31 -17 c-1 -7 -8 -19 -16 -26 -12 -10 -12 -9 -2 4 8 10 8 19 1 26 -6 6 -5 10
5 10 7 0 13 -6 12 -14z"/>
<path d="M2530 4140 c0 -5 5 -10 11 -10 5 0 7 5 4 10 -3 6 -8 10 -11 10 -2 0
-4 -4 -4 -10z"/>
<path d="M2863 4105 c437 -122 743 -334 978 -677 148 -216 235 -452 279 -753
l8 -60 0 88 c-2 358 -162 722 -438 997 -164 164 -308 259 -512 338 -133 51
-234 77 -348 87 -52 4 -51 3 33 -20z"/>
<path d="M2120 4040 c-13 -8 -12 -10 3 -10 9 0 17 5 17 10 0 12 -1 12 -20 0z"/>
<path d="M2832 3968 c-22 -114 -24 -106 22 -114 23 -3 49 -8 59 -10 11 -2 17
2 14 9 -2 7 -20 15 -40 18 -45 7 -51 12 -43 36 5 15 14 18 46 15 25 -3 40 0
40 7 0 6 -12 11 -27 11 -38 0 -55 13 -47 34 6 15 14 17 50 11 27 -4 44 -2 44
4 0 10 -15 16 -72 25 l-36 7 -10 -53z"/>
<path d="M2995 3977 c-2 -7 -12 -40 -23 -74 -11 -34 -18 -64 -14 -67 10 -11
22 -6 22 8 0 41 56 28 65 -14 4 -17 13 -30 21 -30 10 0 11 6 4 26 -13 33 -13
34 4 34 21 0 40 54 27 78 -13 25 -100 57 -106 39z m89 -52 c2 -7 -1 -21 -8
-30 -9 -13 -20 -16 -44 -10 -33 7 -39 22 -22 55 9 16 15 17 39 9 16 -6 32 -16
35 -24z"/>
<path d="M3136 3865 c-28 -70 -31 -85 -18 -85 10 0 62 117 62 138 0 30 -20 7
-44 -53z"/>
<path d="M3198 3830 c-21 -38 -33 -72 -28 -75 5 -3 15 3 22 14 7 10 22 21 32
23 15 2 21 -6 30 -41 6 -25 16 -46 22 -48 8 -3 8 11 -1 50 l-13 55 39 11 c39
12 61 31 36 31 -8 0 -34 -7 -57 -15 -57 -20 -65 -19 -48 8 23 35 29 57 15 57
-7 0 -29 -31 -49 -70z"/>
<path d="M2370 3804 c-87 -16 -237 -60 -244 -73 -3 -5 13 -2 37 6 44 15 55 19
122 34 105 24 318 32 435 17 313 -41 629 -229 828 -493 57 -76 147 -251 181
-354 34 -100 58 -264 57 -384 -1 -59 2 -107 7 -107 7 0 10 41 9 160 0 369
-188 739 -487 962 -142 106 -300 179 -483 224 -90 22 -360 27 -462 8z"/>
<path d="M3365 3788 c-53 -28 -62 -93 -19 -133 34 -31 75 -32 108 -2 27 24 34
48 23 88 -10 40 -75 67 -112 47z m77 -35 c10 -9 18 -27 18 -40 0 -28 -33 -63
-60 -63 -11 0 -29 9 -40 20 -55 55 24 135 82 83z"/>
<path d="M2070 3710 c-9 -6 -10 -10 -3 -10 6 0 15 5 18 10 8 12 4 12 -15 0z"/>
<path d="M3548 3606 c-32 -29 -58 -56 -58 -60 0 -15 27 -3 59 27 25 24 32 27
27 12 -5 -11 -10 -37 -13 -57 l-5 -37 53 14 c30 8 55 15 57 15 1 0 -16 -16
-38 -36 -39 -36 -50 -54 -30 -54 15 0 120 102 114 111 -2 4 -10 6 -17 4 -7 -2
-23 -6 -37 -9 -14 -2 -38 -7 -54 -12 -25 -6 -28 -5 -22 11 13 34 28 104 25
114 -2 6 -30 -13 -61 -43z"/>
<path d="M2860 3568 c-66 -10 -201 -73 -285 -133 -174 -124 -260 -304 -196
-409 25 -40 61 -68 106 -83 l30 -10 -35 -15 c-115 -49 -286 -230 -364 -385
-48 -96 -65 -232 -41 -338 16 -74 84 -146 154 -164 190 -49 370 32 644 289 91
86 115 120 84 120 -8 0 -34 -21 -59 -47 -237 -251 -492 -389 -594 -325 -17 11
-42 42 -55 69 -21 41 -24 62 -24 153 0 88 4 117 27 177 55 154 206 332 353
418 58 34 79 54 58 56 -164 15 -203 42 -188 131 14 78 145 239 261 318 69 48
159 90 208 96 37 5 46 3 54 -12 19 -38 0 -118 -45 -186 -9 -15 -15 -30 -12
-33 26 -25 88 83 93 161 8 115 -55 170 -174 152z"/>
<path d="M3687 3431 c-73 -15 -94 -31 -41 -31 14 0 31 -12 45 -31 18 -25 20
-35 11 -54 -6 -14 -8 -26 -3 -29 11 -7 93 134 87 150 -3 8 -9 13 -13 13 -4 -1
-43 -9 -86 -18z m73 -18 c0 -5 -9 -19 -19 -32 l-18 -24 -17 24 c-16 23 -16 24
6 31 33 9 48 9 48 1z"/>
<path d="M3780 3303 c-36 -20 -66 -37 -68 -38 -5 -4 50 -95 59 -95 8 0 -1 33
-21 69 -8 15 0 22 51 46 32 16 59 32 59 36 0 19 -20 15 -80 -18z"/>
<path d="M1275 3200 c22 -45 29 -52 20 -20 -4 14 -14 32 -22 40 -12 12 -11 7
2 -20z"/>
<path d="M3845 3183 c-33 -13 -63 -28 -68 -32 -4 -4 2 -31 14 -60 13 -31 26
-48 31 -43 5 5 2 24 -9 46 -15 32 -15 38 -3 46 26 16 36 11 49 -26 9 -24 16
-33 23 -26 6 6 4 20 -6 40 -15 30 -15 32 5 42 11 7 22 10 23 8 1 -2 9 -20 19
-40 26 -58 40 -45 17 15 -11 28 -20 53 -20 55 0 5 -17 -1 -75 -25z"/>
<path d="M3892 3041 c-34 -10 -65 -20 -67 -23 -9 -9 18 -84 38 -105 39 -43
111 -24 126 33 9 34 -8 114 -23 113 -6 0 -39 -9 -74 -18z m72 -27 c23 -61 -19
-119 -70 -96 -23 11 -44 47 -44 77 0 11 30 21 101 34 4 0 10 -6 13 -15z"/>
<path d="M1154 3002 c18 -21 29 -23 27 -5 -1 4 -4 8 -8 8 -5 0 -15 4 -23 9 -9
6 -7 1 4 -12z"/>
<path d="M1150 2941 c0 -5 15 -20 33 -32 l32 -22 -29 31 c-32 34 -36 37 -36
23z"/>
<path d="M3938 2857 c-49 -6 -78 -14 -78 -21 0 -8 15 -12 38 -12 37 1 37 1 40
-41 3 -39 1 -43 -20 -44 -13 -1 -26 -1 -30 -1 -3 1 -9 -5 -12 -14 -5 -13 3
-14 52 -9 86 9 113 16 106 26 -3 6 -20 9 -37 7 -32 -3 -32 -2 -32 42 0 42 2
45 28 48 15 2 27 9 27 18 0 8 -1 13 -2 13 -2 -1 -38 -6 -80 -12z"/>
<path d="M1013 2725 c0 -22 2 -30 4 -17 2 12 2 30 0 40 -3 9 -5 -1 -4 -23z"/>
<path d="M3897 2672 c-9 -2 -17 -8 -17 -13 0 -5 36 -9 80 -9 47 0 80 4 80 10
0 6 -3 10 -7 11 -21 3 -121 4 -136 1z"/>
<path d="M1135 2600 c-3 -11 -7 -34 -7 -51 -2 -62 66 -72 85 -13 15 45 27 57
44 42 10 -8 13 -22 8 -45 -7 -37 9 -46 19 -10 9 36 7 55 -10 71 -29 29 -53 19
-74 -29 -27 -63 -55 -63 -48 0 6 47 -6 70 -17 35z"/>
<path d="M1326 2567 c3 -10 9 -15 12 -12 3 3 0 11 -7 18 -10 9 -11 8 -5 -6z"/>
<path d="M1336 2455 c3 -90 6 -109 35 -215 64 -243 189 -440 386 -609 169
-144 346 -231 565 -277 88 -18 276 -24 384 -11 89 10 238 50 325 86 78 32 233
123 245 143 4 6 -13 -2 -37 -19 -98 -66 -273 -136 -427 -169 -119 -26 -344
-28 -462 -5 -129 26 -220 56 -312 102 -348 173 -575 457 -673 839 -4 15 -25
150 -29 180 -2 19 -2 -1 0 -45z"/>
<path d="M1193 2472 c-36 -6 -66 -51 -59 -90 10 -61 52 -89 107 -70 64 22 71
119 11 149 -33 16 -32 16 -59 11z m59 -39 c37 -33 11 -103 -39 -103 -28 0 -63
33 -63 60 0 26 34 60 62 60 12 0 30 -7 40 -17z"/>
<path d="M1004 2370 c54 -682 611 -1263 1301 -1356 59 -8 303 -12 363 -6 84 8
39 17 -96 18 -126 1 -223 15 -402 59 -59 14 -210 75 -288 115 -325 170 -553
402 -717 729 -46 92 -118 292 -130 360 -3 19 -7 37 -9 40 -2 3 -7 31 -11 61
-11 87 -18 74 -11 -20z"/>
<path d="M3782 2410 c0 -19 2 -27 5 -17 2 9 2 25 0 35 -3 9 -5 1 -5 -18z"/>
<path d="M1269 2286 c-2 -3 -18 -7 -34 -10 -64 -12 -85 -18 -85 -25 0 -16 12
-19 40 -11 27 8 29 6 35 -31 9 -53 27 -50 23 4 -3 37 0 42 19 45 18 3 24 -4
33 -40 6 -24 15 -55 20 -69 8 -25 6 -27 -51 -44 -57 -18 -77 -30 -66 -42 3 -2
33 5 67 17 51 18 64 20 71 9 16 -26 9 -44 -42 -97 -27 -29 -47 -57 -43 -63 4
-7 28 -8 68 -4 l61 7 -44 -45 c-63 -65 -50 -74 74 -52 11 2 28 4 38 4 9 1 17
7 17 15 0 11 -10 12 -60 1 -33 -7 -62 -10 -64 -6 -2 3 15 26 39 50 24 25 42
48 39 53 -5 8 -78 3 -119 -9 l-20 -6 20 24 c11 13 30 33 43 45 27 26 28 54 3
119 -10 28 -24 76 -31 108 -10 42 -18 57 -30 57 -9 0 -19 -2 -21 -4z"/>
<path d="M4213 2268 c-2 -18 0 -20 7 -8 12 18 13 30 2 30 -4 0 -9 -10 -9 -22z"/>
<path d="M4138 2257 c-16 -13 -28 -28 -28 -35 0 -7 -4 -12 -10 -12 -5 0 -10
-9 -10 -20 0 -11 -4 -20 -10 -20 -5 0 -7 8 -4 18 5 13 4 14 -4 3 -6 -8 -15
-10 -22 -6 -9 5 -11 4 -6 -3 4 -7 1 -12 -6 -12 -14 0 -49 65 -40 74 2 3 14 1
26 -5 20 -10 20 -10 2 5 -23 18 -32 20 -41 6 -8 -13 33 -95 65 -130 24 -26 27
-36 23 -70 -5 -38 -23 -57 -23 -24 0 55 -97 120 -172 115 -26 -2 -22 -15 17
-70 31 -43 54 -63 139 -116 13 -9 14 -15 3 -47 -11 -35 -27 -51 -27 -28 0 6
-10 10 -22 10 -17 0 -19 -3 -9 -9 8 -5 9 -11 3 -15 -6 -3 -18 4 -27 16 -10 13
-15 16 -13 8 2 -8 18 -24 36 -35 30 -20 35 -44 12 -69 -8 -8 -42 6 -41 17 3
20 -1 25 -21 30 -22 6 -22 6 -4 -8 15 -11 16 -15 5 -15 -8 0 -21 6 -28 13 -8
6 -6 0 4 -15 9 -16 16 -28 14 -29 -2 0 -19 -3 -36 -5 -31 -5 -33 -3 -33 25 0
17 -4 31 -9 31 -5 0 -7 8 -5 18 2 9 -10 41 -27 71 -26 45 -33 52 -41 37 -23
-41 -6 -131 33 -172 l20 -21 -32 -14 c-29 -12 -34 -11 -43 6 -6 11 -23 32 -39
48 -22 23 -33 28 -55 22 -53 -13 -97 -79 -87 -130 2 -11 4 -25 4 -32 1 -6 15
-25 32 -42 52 -52 116 -36 139 37 16 48 16 47 77 65 l51 15 -19 -33 c-23 -38
-38 -145 -21 -145 14 0 72 74 71 91 0 10 -2 10 -7 -2 -9 -20 -48 -69 -56 -69
-11 0 -6 55 7 80 8 14 19 24 25 23 6 -2 9 4 6 12 -4 8 -1 15 5 15 6 0 10 -3
10 -7 -3 -19 2 -33 11 -33 6 0 10 15 10 34 0 35 13 46 51 46 17 0 15 -7 -17
-67 -43 -81 -132 -208 -179 -253 -29 -28 -36 -30 -55 -20 -12 6 -28 9 -35 6
-8 -3 -16 0 -19 7 -2 7 -5 5 -5 -5 -1 -9 -7 -19 -13 -22 -7 -4 -3 -4 9 -2 12
2 27 -2 34 -10 9 -11 8 -14 -5 -14 -9 0 -16 -5 -16 -11 0 -7 -15 -9 -42 -5
-24 3 -49 5 -57 5 -21 1 7 31 44 47 16 7 25 13 18 14 -23 0 -63 -23 -78 -46
-17 -26 -15 -27 63 -39 l43 -7 -32 -24 c-29 -21 -34 -22 -49 -9 -10 9 -24 13
-34 9 -14 -5 -15 -9 -4 -15 10 -7 9 -9 -5 -9 -10 0 -20 6 -23 14 -3 8 -13 17
-22 20 -9 3 0 -9 20 -27 35 -32 36 -33 17 -46 -17 -10 -24 -10 -36 0 -21 18
-43 20 -36 3 9 -24 -6 -34 -32 -22 -13 6 -22 14 -20 19 3 4 0 11 -6 15 -6 3
-15 1 -19 -7 -6 -9 0 -17 21 -27 16 -8 29 -18 29 -22 0 -9 -149 -50 -181 -50
-13 0 -31 -5 -39 -10 -10 -6 2 -7 35 -4 l50 6 -40 -42 c-45 -46 -39 -61 23
-55 38 3 102 58 102 86 0 22 15 33 70 51 38 13 48 13 58 2 6 -7 12 -16 12 -19
0 -4 7 -14 17 -23 15 -15 16 -13 11 30 l-5 47 48 30 48 30 -10 -26 c-5 -14
-12 -51 -16 -81 -5 -52 -5 -54 14 -43 11 5 28 23 38 38 l17 28 -26 -27 c-15
-16 -29 -28 -32 -28 -11 0 9 84 22 98 8 8 14 9 15 3 3 -26 4 -30 10 -36 4 -3
5 17 4 44 -3 49 -2 51 50 95 l53 45 0 -53 c0 -29 4 -61 10 -71 9 -17 11 -15
26 13 25 49 31 45 29 -21 -2 -68 20 -124 59 -151 25 -17 64 -21 72 -7 3 5 21
12 40 15 37 7 76 46 76 77 0 10 5 21 10 24 6 3 10 11 10 17 0 7 -5 6 -14 -1
-9 -8 -16 -8 -20 -2 -4 5 0 13 8 18 21 12 22 44 3 78 -18 34 -22 29 -7 -9 12
-34 4 -53 -31 -71 -42 -22 -62 -20 -49 5 7 13 8 39 4 67 -5 35 -4 44 5 38 9
-5 9 -1 -1 14 -7 12 -17 21 -22 21 -4 0 -2 -8 5 -17 13 -16 12 -17 -4 -4 -12
10 -14 17 -7 26 8 9 7 15 -2 18 -8 4 -7 6 4 6 10 1 34 -14 54 -31 25 -23 33
-26 24 -12 -24 39 -67 57 -116 49 -38 -5 -44 -4 -45 12 0 10 -2 28 -5 41 -5
25 -5 25 61 8 80 -21 152 15 193 97 20 39 29 77 18 77 -22 0 -174 -45 -192
-56 -13 -9 -27 -14 -31 -12 -4 1 11 40 34 85 22 45 43 80 45 78 6 -6 61 -13
113 -14 l50 -1 24 -65 c25 -72 56 -101 94 -91 30 7 48 47 41 86 -5 21 -3 30 6
30 8 0 11 9 7 29 -4 19 -2 31 6 34 7 3 3 5 -8 4 -17 -1 -20 -6 -17 -31 3 -30
2 -30 -12 -11 -11 12 -14 31 -11 55 3 24 2 28 -3 11 l-7 -23 -14 26 c-8 14
-18 26 -23 26 -5 0 -6 4 -3 10 4 6 -1 7 -12 3 -16 -6 -17 -5 -3 13 14 18 14
18 -2 5 -10 -7 -15 -17 -12 -22 6 -10 -9 -12 -19 -3 -8 8 12 61 29 75 7 6 25
8 39 5 22 -6 25 -12 25 -49 0 -27 3 -37 9 -29 6 11 10 10 16 -5 5 -10 7 -24 6
-32 -1 -7 2 -10 8 -6 15 8 14 32 -4 80 -14 39 -14 40 -16 10 l-1 -30 -7 30
c-4 17 -3 33 2 36 15 10 -10 20 -37 15 -57 -10 -72 -32 -88 -121 -3 -18 -11
-20 -76 -19 -39 0 -74 3 -78 7 -13 12 6 58 24 56 69 -6 125 29 163 104 23 43
41 138 30 150 -12 12 -129 -82 -157 -127 -20 -31 -24 -35 -20 -16 3 14 8 52
12 83 6 50 11 61 43 86 20 16 44 44 54 63 l18 33 -21 -27 c-30 -39 -57 -37
-54 3 2 35 7 42 49 63 23 12 26 16 10 16 -11 -1 -32 -11 -47 -23z m-69 -110
c0 -9 -2 -8 -6 1 -2 6 -10 9 -15 6 -7 -4 -8 -2 -4 5 9 13 26 5 25 -12z m-100
-37 c33 -16 42 -29 55 -70 1 -3 5 -12 10 -20 7 -11 4 -10 -10 2 -12 11 -24 14
-33 9 -11 -7 -10 -10 5 -14 17 -4 17 -5 -2 -6 -12 0 -30 7 -40 17 -24 20 -74
86 -74 95 0 14 52 6 89 -13z m265 -80 c-13 -58 -48 -120 -66 -120 -5 0 -6 5
-3 10 10 16 -1 11 -16 -7 -10 -11 -10 -14 -1 -9 6 4 12 3 12 -2 0 -5 -12 -9
-27 -9 -16 0 -22 2 -15 4 6 3 12 9 12 14 0 6 -4 7 -10 4 -16 -10 -11 1 7 16
15 12 16 12 8 -1 -6 -12 -5 -13 5 -3 19 17 21 40 4 40 -7 0 -11 -3 -9 -7 2 -3
-4 -11 -14 -17 -15 -10 -17 -8 -14 11 6 30 38 66 93 104 25 17 46 32 47 32 1
0 -5 -27 -13 -60z m-422 -133 c23 -45 23 -46 -1 -65 -11 -9 -12 -12 -2 -10 7
2 15 -3 17 -10 1 -7 0 -8 -3 -2 -2 5 -9 8 -13 5 -21 -13 -44 47 -41 108 1 36
15 27 43 -26z m458 -102 c16 -19 15 -71 -1 -91 -17 -20 -39 -17 -39 6 0 11 -6
20 -12 21 -7 1 -2 5 12 9 23 7 23 8 3 9 -12 1 -25 5 -28 11 -4 6 1 7 12 3 14
-5 16 -3 6 7 -9 9 -9 16 0 26 16 18 32 17 47 -1z m-584 -16 c3 -5 -2 -6 -11
-3 -11 5 -14 2 -9 -10 3 -9 10 -13 15 -10 5 3 9 0 9 -5 0 -6 -9 -11 -19 -11
-11 0 -22 -4 -25 -9 -3 -4 7 -6 22 -4 25 3 26 3 5 -6 -27 -12 -31 -25 -5 -17
11 4 19 1 19 -6 1 -23 8 -43 18 -51 6 -5 3 -7 -7 -3 -12 3 -15 1 -11 -10 9
-24 -45 -17 -72 11 -50 49 -20 159 40 147 14 -2 28 -8 31 -13z m633 -103 c17
-66 -21 -100 -66 -58 -10 9 -14 14 -8 10 6 -4 11 1 11 12 0 10 -4 18 -9 17 -5
-1 -12 4 -14 12 -4 9 0 11 15 7 16 -5 23 0 33 23 16 35 23 31 38 -23z m-182
-73 c-30 -57 -68 -87 -121 -97 -25 -4 -26 -3 -14 11 7 9 8 14 3 11 -6 -4 -21
0 -35 8 l-25 15 32 -4 c26 -3 30 -1 22 10 -7 7 -19 13 -28 13 -14 0 -14 2 -1
10 9 6 20 5 30 -3 12 -9 13 -9 3 3 -7 8 -13 17 -13 21 0 8 38 19 90 26 19 3
42 9 50 13 21 12 24 -4 7 -37z m-269 -149 c2 -20 3 -39 4 -43 1 -3 -2 -19 -7
-34 -6 -22 -10 -26 -17 -15 -7 9 -8 6 -5 -10 3 -13 3 -21 0 -18 -3 3 -16 -8
-28 -24 -26 -35 -35 -30 -35 21 0 47 17 92 31 84 6 -4 8 -13 5 -21 -3 -8 -1
-14 4 -14 6 0 10 7 10 15 0 8 5 15 11 15 5 0 8 -4 4 -9 -3 -5 0 -13 6 -17 9
-5 11 8 6 49 -3 32 -2 57 2 57 4 0 8 -16 9 -36z m59 -88 c-3 -7 1 -13 9 -13 7
0 11 4 8 9 -3 4 2 5 10 2 19 -7 39 -68 31 -94 -3 -11 -16 -25 -28 -31 -18 -10
-24 -8 -44 16 -16 18 -23 37 -21 60 1 19 5 32 9 29 10 -6 20 26 12 38 -4 7 -1
8 6 4 7 -5 10 -14 8 -20z m15 -143 c33 -7 34 -8 8 -61 -28 -57 -53 -56 -84 6
-20 39 -19 113 1 105 9 -4 11 1 7 13 -3 11 5 2 18 -19 15 -25 32 -40 50 -44z
m108 -6 c0 -16 -58 -67 -77 -67 -8 0 -12 6 -9 13 3 6 9 20 12 30 4 9 15 17 25
17 10 0 21 5 24 10 9 14 25 12 25 -3z m17 -41 c-3 -8 -20 -22 -36 -31 -24 -12
-29 -12 -25 -1 3 7 16 18 30 24 13 7 24 17 24 23 0 7 3 10 6 6 4 -3 4 -13 1
-21z m-732 -47 c-1 -10 -5 -22 -10 -26 -4 -5 -5 -2 -1 5 4 6 2 12 -3 12 -6 0
-11 -7 -11 -15 0 -8 5 -15 12 -15 6 0 3 -7 -8 -15 -10 -8 -37 -15 -58 -15
l-40 0 34 35 c19 19 40 35 47 35 7 0 13 4 13 8 0 5 6 9 13 9 7 0 13 -8 12 -18z
m635 -4 c-7 -8 -16 -15 -21 -15 -5 0 -6 7 -3 15 4 8 13 15 21 15 13 0 13 -3 3
-15z"/>
<path d="M3940 2086 c0 -2 8 -10 18 -17 15 -13 16 -12 3 4 -13 16 -21 21 -21
13z"/>
<path d="M3995 2060 c10 -11 20 -20 23 -20 3 0 -3 9 -13 20 -10 11 -20 20 -23
20 -3 0 3 -9 13 -20z"/>
<path d="M3655 1680 c-3 -6 1 -7 9 -4 18 7 21 14 7 14 -6 0 -13 -4 -16 -10z"/>
<path d="M4034 1582 c3 -5 0 -13 -6 -15 -9 -4 -10 -6 -1 -6 17 -1 25 16 12 25
-7 4 -9 3 -5 -4z"/>
<path d="M3905 1329 c-4 -5 -4 -13 -1 -16 3 -4 6 0 6 8 0 11 2 11 10 -1 6 -9
10 -10 10 -3 0 17 -17 25 -25 12z"/>
<path d="M3933 1925 c0 -8 4 -12 9 -9 5 3 16 0 24 -7 8 -6 16 -10 19 -7 2 2
-8 12 -24 21 -23 13 -28 14 -28 2z"/>
<path d="M3880 1875 c0 -8 2 -15 4 -15 2 0 6 7 10 15 3 8 1 15 -4 15 -6 0 -10
-7 -10 -15z"/>
<path d="M1408 1772 c-32 -8 -55 -19 -52 -24 4 -5 15 -8 25 -5 29 8 74 -55 60
-82 -7 -12 -7 -22 -2 -26 12 -7 94 132 86 145 -8 12 -41 10 -117 -8z m74 -42
l-20 -32 -16 23 c-9 13 -16 27 -16 31 0 6 59 16 68 12 2 -1 -6 -16 -16 -34z"/>
<path d="M1526 1655 c-56 -51 -71 -85 -25 -57 31 20 52 -2 44 -44 -7 -41 11
-55 20 -15 5 22 11 28 25 24 22 -6 60 29 60 55 0 10 -15 35 -32 55 l-33 37
-59 -55z m88 -7 c32 -45 -22 -79 -59 -38 -17 19 -17 21 0 40 23 26 40 25 59
-2z"/>
<path d="M1640 1540 l-50 -62 37 -34 c34 -30 63 -43 63 -28 0 3 -13 17 -30 31
-16 13 -30 31 -30 39 0 25 30 28 55 4 13 -12 28 -19 34 -16 6 4 -3 19 -21 35
-29 26 -30 30 -17 44 14 14 19 13 45 -9 29 -23 61 -33 49 -15 -3 5 -23 24 -44
41 l-40 31 -51 -61z"/>
<path d="M1832 1447 c-10 -18 -29 -48 -41 -69 l-21 -36 49 -31 c28 -17 53 -26
56 -21 5 9 -50 50 -67 50 -4 0 -3 11 4 25 l11 24 38 -19 c48 -25 60 -11 13 15
-37 20 -38 23 -24 45 8 12 14 12 45 -3 41 -20 45 -20 45 -8 0 5 -20 21 -45 34
l-44 25 -19 -31z"/>
<path d="M1961 1383 c-39 -84 -51 -123 -37 -123 7 0 21 20 30 45 10 25 21 43
25 41 4 -3 14 -30 21 -61 23 -97 36 -89 97 63 3 6 -1 12 -9 12 -8 0 -24 -21
-35 -47 -22 -52 -22 -52 -48 40 -8 31 -19 57 -24 57 -4 0 -13 -12 -20 -27z"/>
<path d="M2855 1338 c-22 -6 -41 -11 -42 -12 -7 -6 44 -147 52 -146 6 0 9 11
7 24 -4 33 33 41 66 16 13 -11 28 -17 33 -14 5 3 0 13 -11 22 -18 15 -20 21
-11 45 9 24 8 31 -14 53 -27 27 -24 26 -80 12z m73 -51 c-2 -14 -14 -24 -36
-31 -38 -11 -39 -10 -44 29 -2 24 1 30 22 35 34 9 62 -6 58 -33z"/>
<path d="M2128 1313 c-32 -37 -37 -57 -22 -91 15 -37 66 -64 98 -52 18 6 42
58 31 68 -8 9 -25 -10 -25 -29 0 -26 -43 -26 -70 1 -26 26 -25 50 0 78 24 26
48 28 76 7 24 -18 34 -19 34 -2 0 34 -96 49 -122 20z"/>
<path d="M3498 1323 c7 -3 16 -2 19 1 4 3 -2 6 -13 5 -11 0 -14 -3 -6 -6z"/>
<path d="M2725 1308 c-27 -6 -51 -11 -52 -12 -1 -1 3 -36 10 -77 14 -80 8 -75
82 -70 23 1 52 18 45 25 -3 2 -24 1 -47 -3 -37 -7 -43 -6 -49 11 -8 25 3 36
41 40 17 2 29 8 27 13 -2 9 -20 9 -67 2 -5 -1 -11 8 -13 20 -3 18 3 22 37 28
25 4 41 12 41 21 0 8 -1 13 -2 13 -2 -1 -25 -6 -53 -11z"/>
<path d="M2297 1303 c-3 -5 -11 -40 -17 -78 -14 -88 3 -113 19 -29 7 33 13 66
15 75 4 20 -9 45 -17 32z"/>
<path d="M2357 1283 c-10 -18 -8 -153 2 -153 6 0 12 14 12 30 1 17 3 35 4 40
1 6 3 18 4 28 2 20 0 21 60 -64 30 -43 35 -46 41 -29 12 33 12 155 1 155 -6 0
-11 -12 -12 -27 -1 -31 -8 -75 -13 -80 -2 -2 -19 22 -40 52 -34 52 -50 64 -59
48z"/>
<path d="M2534 1206 c2 -45 5 -81 5 -81 54 0 111 10 111 18 0 8 -15 11 -45 9
-43 -4 -45 -3 -45 22 0 24 4 26 40 26 22 0 40 5 40 10 0 6 -20 10 -44 10 -37
0 -44 3 -41 18 2 9 4 20 4 25 1 4 19 7 41 7 22 0 40 5 40 11 0 6 -22 9 -56 8
l-56 -2 6 -81z"/>
<path d="M3467 1126 c-21 -66 -21 -66 1 -66 19 0 62 39 62 56 0 5 -6 2 -13 -7
-7 -9 -23 -21 -35 -28 -22 -12 -23 -11 -17 11 4 12 13 35 20 50 7 15 10 30 6
32 -4 3 -15 -19 -24 -48z"/>
</g>
</svg>
